PathFileType	4	(X/Y/Z)	Patient4_TMGait_0pt4_03_left_01.trc.trc
DataRate	CameraRate	NumFrames	NumMarkers	Units	OrigDataRate	OrigDataStartFrame	OrigNumFrames
75.675675675676	75.675675675676	4	33	mm	75.675675675676	1	       141
Frame#	Time	Sacral			L.Shoulder			Chest			R.Shoulder			Neck			R.ASIS			L.ASIS			R.Thigh.Superior			R.Thigh.Lateral			R.Thigh.Inferior			R.Patella			L.Thigh.Superior			L.Thigh.Lateral			L.Thigh.Inferior			L.Patella			L.Shank.Superior			L.Shank.Lateral			L.Shank.Inferior			R.Shank.Superior			R.Shank.Lateral			R.Shank.Inferior			R.Heel			R.Midfoot.Superior			R.Midfoot.Lateral			R.Toe			L.Heel			L.Midfoot.Lateral			L.Midfoot.Superior			L.Toe			L.Elbow			L.Wrist			R.Elbow			R.Wrist			
		X1	Y1	Z1	X2	Y2	Z2	X3	Y3	Z3	X4	Y4	Z4	X5	Y5	Z5	X6	Y6	Z6	X7	Y7	Z7	X8	Y8	Z8	X9	Y9	Z9	X10	Y10	Z10	X11	Y11	Z11	X12	Y12	Z12	X13	Y13	Z13	X14	Y14	Z14	X15	Y15	Z15	X16	Y16	Z16	X17	Y17	Z17	X18	Y18	Z18	X19	Y19	Z19	X20	Y20	Z20	X21	Y21	Z21	X22	Y22	Z22	X23	Y23	Z23	X24	Y24	Z24	X25	Y25	Z25	X26	Y26	Z26	X27	Y27	Z27	X28	Y28	Z28	X29	Y29	Z29	X30	Y30	Z30	X31	Y31	Z31	X32	Y32	Z32	X33	Y33	Z33	

1	0.830000000000	828.893353743733	1001.401147105260	542.868870601407	973.660273388196	1437.768228065608	350.008220382422	1096.777902070412	1371.650711602320	497.550497810616	1031.523088206430	1439.380115641441	681.655171866874	971.396539627334	1497.043442757975	509.033553116808	1069.543323296136	944.726354329463	635.123261983308	1026.120963416817	967.731093421972	364.578895544327	1107.145639739573	741.821625416425	603.160115762647	1028.501320421849	631.761096854867	667.299075497553	1100.687409933230	580.094688163783	582.545000079059	1099.844537617058	490.847379664708	587.777634936130	1116.248835490482	784.712757304858	379.089718051161	1064.470967605852	656.712268429828	303.496958426124	1177.425183676146	599.049815948977	347.542607444960	1193.621709011284	512.901530528456	339.229855166613	1135.290605168102	440.585828921028	336.776680942715	996.856344284950	378.928445057801	300.395862524509	1009.426768927585	247.278560203525	351.450634243043	1068.344859357992	402.557694533703	595.018068818404	996.515043569888	300.654905795141	659.090711265311	1030.245108844254	205.229246908173	592.277267273559	890.396663814765	43.535095343165	566.546896695384	1062.188954397278	96.801676129921	597.732720367301	975.650371095976	37.269625183570	639.061485786954	1183.832371808781	42.140637032968	621.010313213214	835.365916325719	151.302710262457	404.547517939100	891.427226163957	119.492000950333	316.693908566073	996.212174760055	144.213244124597	329.580297334716	1088.010241776257	48.094400766628	286.854401310981	932.922446390202	1088.443576818290	229.557160776466	1043.912891294865	850.516964290003	200.827493459721	1064.145447938951	1098.345841549229	817.594554092509	1273.201962766520	953.171920028784	770.404349828911	
2	0.843214285714	827.909737015864	1002.297474806970	544.840283393281	972.060566608668	1437.970022208859	350.884086712884	1096.500766194040	1371.753500384012	497.252280912692	1033.310507422252	1439.929881374922	681.861744935953	971.372095740310	1497.386364126926	509.646155076348	1069.024152440577	944.675592855706	635.245814017861	1023.884555810315	968.462131907752	365.049653004722	1104.083749323686	741.318172744682	602.668391104014	1025.004066961614	631.880231288377	667.724155510394	1095.904952827787	579.627908672129	582.597962622059	1094.326977991394	490.682206845720	588.042595351071	1114.411454220771	786.477030104703	379.007731174576	1063.460896891841	658.253045068869	303.315733051303	1176.531236250847	601.276765481946	347.775529897708	1194.106069530855	516.744413032797	338.824627629470	1139.529004057402	443.692599282624	335.266409365161	1005.730265685018	374.490466121213	298.700738150447	1027.225910725560	243.860377994525	347.437301967622	1062.944077804137	402.477610398888	595.317929956369	991.070126776504	300.589892206098	659.288311623932	1024.712836034827	205.147025492402	592.403099137648	884.745530277869	43.541362069179	566.576554771886	1056.565192263942	96.749507562476	597.741568374814	969.998408563249	37.265040222959	639.059883100010	1178.183158054846	42.071217136768	621.069977822061	861.604613754583	136.787814589374	400.430219178349	918.087291444169	109.977853841084	311.620350022110	1020.512566030283	140.957721981322	324.060376205441	1117.134040403898	52.141421346823	279.093029346434	926.543442337901	1089.174354152559	231.178743731914	1027.943359111508	848.003017882917	201.225331760330	1071.046716531232	1099.588750484603	817.133433284633	1284.344494636265	965.134830689868	764.471367542937	
3	0.856428571429	826.919895677652	1003.165161395719	546.744090757373	970.507608071739	1438.141543988720	351.715547567777	1096.229530900829	1371.812975677484	496.933398909533	1035.062683141415	1440.425811442452	682.038342054225	971.357487254029	1497.695659529854	510.220629319491	1068.474198043545	944.602379572942	635.349423018479	1021.683375972469	969.132403827941	365.493547314765	1101.044921885402	740.808455236470	602.185548736920	1021.538503957830	631.983658687139	668.145428758435	1091.162232619175	579.159711377964	582.646189796933	1088.857938699738	490.515739544928	588.300909954905	1112.492624950532	788.075455897970	378.980962977154	1062.371278797214	659.709448249756	303.089560469110	1175.447041269121	603.324898784608	348.131745295896	1194.417176345178	520.467765220190	338.527615475877	1143.602163308275	446.742003968377	333.857491223440	1014.654956648430	370.081800010706	296.869164371829	1044.934558603392	240.630270995587	343.473409747630	1057.589322110797	402.387411389073	595.608666183272	985.672601896556	300.512991258027	659.483182538252	1019.216533077981	205.059940298437	592.524995465187	879.129362556334	43.543460544404	566.603481155968	1050.973122242989	96.693074299702	597.745493531438	964.382521182573	37.257898432803	639.059683700635	1172.569265830090	42.003806225905	621.127535652519	887.816113397692	122.646372917466	396.080125696397	944.846237443818	100.797586947418	306.477753072777	1044.791571937643	137.978922272069	318.662291242165	1146.201309158943	56.485058347126	271.776690398305	920.191093074239	1089.898969254404	232.738783245644	1012.168252664007	845.588943361044	201.707308772971	1077.927782936126	1100.772982404430	816.593700013433	1295.333275235198	977.047825540493	758.513003632323	
4	0.869642857143	825.920815569689	1003.977200933342	548.500580362476	969.046175747800	1438.262465646920	352.449315559026	1095.964995865977	1371.797500653138	496.569915581966	1036.730947528957	1440.826565902646	682.147830204939	971.354376734355	1497.945832212958	510.711622535151	1067.866144911797	944.492924767135	635.413013755685	1019.558038448051	969.694902106437	365.873066941458	1098.057120541688	740.289574390246	601.720463889662	1018.130802922180	632.059685501969	668.548561221225	1086.502252131294	578.690248570370	582.682071091800	1083.489994712605	490.346885360274	588.541086161651	1110.444657314657	789.373455693155	379.044025682907	1061.144788070479	661.000604991088	302.793184133659	1174.046894517234	605.045286267556	348.676569430198	1194.424930563562	523.948602963779	338.414146314386	1147.352705361785	449.669396547528	332.627828495713	1023.577987932581	365.772661879558	294.839241604117	1062.325577213213	237.767698495747	339.637340699941	1052.324796079452	402.280413960461	595.877845436986	980.365957326496	300.419259742267	659.671307523979	1013.791558816766	204.966078803220	592.638411594822	873.580238274983	43.539176991659	566.626210181294	1045.443369238188	96.631551375026	597.742701989389	958.836481675032	37.246692471606	639.061905415408	1167.023656892183	41.940170818749	621.181083741547	913.750286387089	109.298681095752	391.409528578677	971.521081006985	92.296885011386	301.290208763463	1068.805004220750	135.520563531707	313.530357049466	1174.883173771375	61.316494944623	265.274257026004	913.902857431433	1090.619873760256	234.184588523188	996.804203545280	843.378243416279	202.365076173748	1084.746419753446	1101.857024853164	815.882112724103	1305.977262216686	988.854212360797	752.512633438351	
